<svg width="69" height="75" viewBox="0 0 69 75" fill="none" xmlns="http://www.w3.org/2000/svg">
<g filter="url(#filter0_dd_1_9)">
<path d="M4.72223 67H64.2778L43.8056 35.3611H25.1945L4.72223 67Z" fill="#A7A9AC"/>
<path d="M10.3056 67H58.6944L40.0833 35.3611H28.9167L10.3056 67Z" fill="#58595B"/>
<path d="M15.8889 67H53.1111L36.3611 35.3611H32.6389L15.8889 67Z" fill="#808285"/>
<path d="M53.1111 65.1389C53.1111 65.6325 52.915 66.1059 52.566 66.4549C52.217 66.8039 51.7436 67 51.25 67H17.75C17.2564 67 16.783 66.8039 16.434 66.4549C16.085 66.1059 15.8889 65.6325 15.8889 65.1389C15.8889 64.6453 16.085 64.1719 16.434 63.8229C16.783 63.4739 17.2564 63.2778 17.75 63.2778H51.25C51.7436 63.2778 52.217 63.4739 52.566 63.8229C52.915 64.1719 53.1111 64.6453 53.1111 65.1389ZM49.3889 57.6944C49.3889 58.188 49.1928 58.6614 48.8438 59.0104C48.4948 59.3595 48.0214 59.5556 47.5278 59.5556H21.4722C20.9786 59.5556 20.5052 59.3595 20.1562 59.0104C19.8072 58.6614 19.6111 58.188 19.6111 57.6944C19.6111 57.2008 19.8072 56.7275 20.1562 56.3784C20.5052 56.0294 20.9786 55.8333 21.4722 55.8333H47.5278C48.0214 55.8333 48.4948 56.0294 48.8438 56.3784C49.1928 56.7275 49.3889 57.2008 49.3889 57.6944Z" fill="#A7A9AC"/>
<path d="M51.3914 47.0861L43.8056 35.3611H25.1944L17.6086 47.0861C21.1242 51.7705 26.5382 55.8315 34.5 55.8315C42.46 55.8315 47.8777 51.7687 51.3914 47.0861Z" fill="#58595B"/>
<path d="M34.5 0C17.75 0 12.1667 5.58333 12.1667 16.75V31.6389C12.1667 35.3592 17.75 52.1111 34.5 52.1111C51.25 52.1111 56.8333 35.3592 56.8333 31.6389V16.75C56.8333 5.58333 51.25 0 34.5 0Z" fill="#A7A9AC"/>
<path d="M15.8889 20.4722C15.8889 3.72223 24.2211 1.86111 34.5 1.86111C44.7789 1.86111 53.1111 3.72223 53.1111 20.4722C53.1111 31.6389 44.7789 40.9444 34.5 40.9444C24.2211 40.9426 15.8889 31.6389 15.8889 20.4722Z" fill="#E6E7E8"/>
<path d="M34.5 40.9426C37.556 40.9426 40.4276 40.1051 42.9736 38.6571C41.5164 36.7179 38.2781 35.3611 34.5 35.3611C30.722 35.3611 27.4855 36.7179 26.0282 38.659C28.5705 40.1051 31.4459 40.9426 34.5 40.9426Z" fill="#FFAC33"/>
<path d="M36.3611 9.29997V18.5404C42.8527 18.1086 47.5278 15.5235 47.5278 13.9565V10.8559C47.5278 9.38372 40.6566 9.29625 36.3611 9.29997ZM32.6389 9.29997C28.3435 9.29625 21.4722 9.38186 21.4722 10.8559V13.9583C21.4722 15.5254 26.1473 18.1105 32.6389 18.5422V9.29997Z" fill="#55ACEE"/>
<path d="M12.1667 18.6111C12.1667 18.6111 12.1667 24.1944 19.6111 35.3611C19.6111 35.3611 12.1667 31.6389 12.1667 24.1944V18.6111ZM56.8333 18.6111C56.8333 18.6111 56.8333 24.1944 49.3889 35.3611C49.3889 35.3611 56.8333 31.6389 56.8333 24.1944V18.6111Z" fill="#226699"/>
</g>
<defs>
<filter id="filter0_dd_1_9" x="-3" y="0" width="75" height="75" filterUnits="userSpaceOnUse" color-interpolation-filters="sRGB">
<feFlood flood-opacity="0" result="BackgroundImageFix"/>
<feColorMatrix in="SourceAlpha" type="matrix" values="0 0 0 0 0 0 0 0 0 0 0 0 0 0 0 0 0 0 127 0" result="hardAlpha"/>
<feOffset dy="4"/>
<feGaussianBlur stdDeviation="2"/>
<feComposite in2="hardAlpha" operator="out"/>
<feColorMatrix type="matrix" values="0 0 0 0 0 0 0 0 0 0 0 0 0 0 0 0 0 0 0.25 0"/>
<feBlend mode="normal" in2="BackgroundImageFix" result="effect1_dropShadow_1_9"/>
<feColorMatrix in="SourceAlpha" type="matrix" values="0 0 0 0 0 0 0 0 0 0 0 0 0 0 0 0 0 0 127 0" result="hardAlpha"/>
<feOffset dy="4"/>
<feGaussianBlur stdDeviation="2"/>
<feComposite in2="hardAlpha" operator="out"/>
<feColorMatrix type="matrix" values="0 0 0 0 0 0 0 0 0 0 0 0 0 0 0 0 0 0 0.25 0"/>
<feBlend mode="normal" in2="effect1_dropShadow_1_9" result="effect2_dropShadow_1_9"/>
<feBlend mode="normal" in="SourceGraphic" in2="effect2_dropShadow_1_9" result="shape"/>
</filter>
</defs>
</svg>
