<svg width="354" height="200" viewBox="0 0 354 200" fill="none" xmlns="http://www.w3.org/2000/svg">
<rect width="354" height="200" rx="10" fill="#061424"/>
<g clip-path="url(#clip0_104_906)">
<rect width="90" height="200" transform="translate(264)" fill="#FFF6E9"/>
<path d="M76.1057 468.497C94.5979 348.221 304.779 181.433 377.865 196.825C425.777 206.918 424.701 325.167 433.342 357.473C445.109 401.529 401.056 318.11 350.127 301.12C289.607 280.934 130.506 311.575 158.48 214.37C182.907 129.538 262.02 111.169 260.187 50.3579C258.506 -4.64089 192.102 -47.486 136.626 -74.9644" stroke="#B4BD3C" stroke-width="0.5" stroke-miterlimit="10"/>
<path d="M80.9557 468.505C101.575 353.276 305.123 192.822 375.15 205.648C421.028 214.059 419.498 326.05 427.264 355.942C438.015 397.383 395.676 317.521 346.815 300.674C288.228 280.488 135.97 308.345 162.943 214.505C186.941 130.791 267.895 113.894 268.013 52.5364C267.912 -2.56331 202.945 -47.099 148.654 -75.7885" stroke="#B4BD3C" stroke-width="0.5" stroke-miterlimit="10"/>
<path d="M85.7803 468.515C108.526 358.332 305.426 204.211 372.41 214.464C416.253 221.193 414.269 326.935 421.162 354.413C430.862 393.246 390.271 316.934 343.469 300.23C286.816 280.044 141.417 305.108 167.381 214.641C190.959 132.046 273.964 116.62 275.813 54.7078C277.494 -0.484457 213.772 -46.7107 160.657 -76.6198" stroke="#B4BD3C" stroke-width="0.5" stroke-miterlimit="10"/>
<path d="M90.6388 468.515C115.519 363.379 305.737 215.591 369.703 223.279C411.487 228.325 409.075 327.818 415.093 352.882C423.684 389.125 384.867 316.337 340.132 299.784C285.404 279.539 146.864 301.87 171.811 214.767C194.977 133.299 279.949 119.362 283.605 56.8946C286.875 1.60983 224.607 -46.3154 172.652 -77.4441" stroke="#B4BD3C" stroke-width="0.5" stroke-miterlimit="10"/>
<path d="M95.4803 468.523C122.487 368.383 306.006 226.979 366.98 232.093C406.696 235.457 403.855 328.692 408.957 351.342C416.522 384.986 379.47 315.731 336.795 299.338C284 279.059 152.319 298.631 176.249 214.901C198.995 134.552 285.841 122.095 291.405 59.0556C296.289 3.69512 235.433 -45.946 184.655 -78.2775" stroke="#B4BD3C" stroke-width="0.5" stroke-miterlimit="10"/>
<path d="M100.322 468.531C129.464 373.421 306.258 238.368 364.257 240.916C401.88 242.598 398.635 329.567 402.863 349.812C409.336 380.831 374.066 315.108 333.459 298.892C282.588 278.572 157.783 295.393 180.696 215.027C203.03 135.814 291.776 124.837 299.214 61.2342C305.704 5.78118 246.259 -45.5841 196.667 -79.1099" stroke="#B4BD3C" stroke-width="0.5" stroke-miterlimit="10"/>
<path d="M105.172 468.531C136.441 378.459 306.384 249.764 361.541 249.73C397.038 249.73 393.399 330.475 396.761 348.281C402.115 376.693 368.669 314.486 330.13 298.446C281.176 278.075 163.221 292.163 185.143 215.178C207.047 137.083 297.693 127.604 307.023 63.4207C315.092 7.90886 257.119 -45.1554 208.678 -79.926" stroke="#B4BD3C" stroke-width="0.5" stroke-miterlimit="10"/>
<path d="M110.013 468.54C143.409 383.506 306.51 261.178 358.818 258.545C392.171 256.863 388.153 331.299 390.666 346.742C394.869 372.555 363.273 313.838 326.784 297.959C279.713 277.52 168.827 288.925 189.572 215.254C211.233 138.328 303.585 130.304 314.815 65.5405C324.464 9.91926 267.945 -44.8272 220.673 -80.809" stroke="#B4BD3C" stroke-width="0.5" stroke-miterlimit="10"/>
<path d="M114.856 468.548C150.386 388.543 306.586 272.624 356.095 267.368C387.271 264.054 382.9 332.131 384.565 345.21C387.523 368.399 357.877 313.19 323.465 297.546C278.344 277.048 174.308 285.771 194.019 215.422C215.277 139.623 309.469 133.071 322.624 67.7519C333.837 12.055 278.789 -44.4073 232.685 -81.6002" stroke="#B4BD3C" stroke-width="0.5" stroke-miterlimit="10"/>
<path d="M119.697 468.548C157.354 393.581 306.594 284.105 353.371 276.182C382.345 271.27 377.621 332.956 378.47 343.68C380.093 364.236 352.48 312.559 320.127 297.1C276.931 276.51 179.755 282.499 198.474 215.514C219.328 140.842 315.353 135.771 330.441 69.8882C343.209 14.1072 289.632 -44.0625 244.704 -82.4751" stroke="#B4BD3C" stroke-width="0.5" stroke-miterlimit="10"/>
<path d="M124.538 468.556C164.33 398.62 306.552 295.653 350.648 284.997C377.394 278.537 372.326 333.713 372.376 342.191C372.477 360.056 347.092 311.912 316.79 296.696C275.51 276.006 185.226 279.311 202.912 215.725C223.371 142.188 321.211 138.597 338.241 72.1425C352.531 16.2774 300.467 -43.5913 256.707 -83.215" stroke="#B4BD3C" stroke-width="0.5" stroke-miterlimit="10"/>
<path d="M129.388 468.564C171.299 403.658 306.46 307.277 347.933 293.811C372.418 285.863 368.384 334.655 366.274 340.61C367.955 355.648 341.704 311.171 313.462 296.208C274.098 275.4 190.682 276.022 207.358 215.817C227.406 143.399 327.062 141.288 346.05 74.2788C361.894 18.3211 311.31 -43.2466 268.719 -84.0899" stroke="#B4BD3C" stroke-width="0.5" stroke-miterlimit="10"/>
<path d="M134.23 468.564C178.275 408.704 306.334 319.019 345.209 302.634C367.434 293.265 363.264 335.513 360.18 339.079C360.953 351.476 336.325 310.423 310.124 295.763C272.686 274.811 196.137 272.793 211.779 215.952C231.423 144.661 332.887 144.022 353.833 76.4488C371.208 20.3986 322.128 -42.8596 280.705 -84.9225" stroke="#B4BD3C" stroke-width="0.5" stroke-miterlimit="10"/>
<path d="M139.072 468.572C185.243 413.742 306.216 330.886 342.486 311.448C362.458 300.75 358.146 336.378 354.077 337.522C353.934 347.287 330.945 309.657 306.796 295.291C271.274 274.171 201.584 269.529 216.243 216.052C235.475 145.889 338.737 146.721 361.659 78.593C380.546 22.4503 332.988 -42.5239 292.734 -85.7727" stroke="#B4BD3C" stroke-width="0.5" stroke-miterlimit="10"/>
<path d="M143.913 468.582C192.22 418.781 306.14 342.898 339.762 320.265C357.507 308.321 353.026 337.238 347.983 336.018C346.916 343.142 325.582 308.918 303.434 294.872C269.811 273.551 207.005 266.317 220.656 216.214C239.476 147.169 344.528 149.473 369.434 80.7982C389.843 24.5546 343.797 -42.0933 304.711 -86.5785" stroke="#B4BD3C" stroke-width="0.5" stroke-miterlimit="10"/>
<path d="M148.755 468.582C199.188 423.82 306.182 355.035 337.039 329.088C352.615 315.975 347.908 338.104 341.889 334.479C339.905 338.97 320.228 308.128 300.13 294.426C268.509 272.869 212.469 263.079 225.128 216.348C243.519 148.422 350.37 152.19 377.268 82.9682C399.173 26.6153 354.657 -41.7064 316.748 -87.4111" stroke="#B4BD3C" stroke-width="0.5" stroke-miterlimit="10"/>
<path d="M153.596 468.591C206.165 428.858 306.392 367.357 334.316 337.902C347.807 323.68 342.788 338.962 335.787 332.948C332.887 334.799 314.899 307.312 296.793 293.981C267.155 272.155 217.907 259.841 229.549 216.474C247.512 149.675 356.137 154.898 385.052 85.1468C408.453 28.6845 365.475 -41.3193 328.734 -88.2353" stroke="#B4BD3C" stroke-width="0.5" stroke-miterlimit="10"/>
<path d="M158.446 468.599C213.133 433.904 306.829 379.721 331.6 346.717C343.091 331.401 337.669 339.828 329.692 331.417C325.876 330.627 309.586 306.462 293.456 293.568C265.844 271.414 223.345 256.628 234.012 216.642C251.538 150.962 361.961 157.632 392.877 87.3502C417.766 30.7786 376.335 -40.9074 340.763 -89.0346" stroke="#B4BD3C" stroke-width="0.5" stroke-miterlimit="10"/>
<path d="M163.288 468.599C220.109 438.942 307.493 392.102 328.877 355.532C338.476 339.113 333.836 339.475 323.598 329.887C319.328 325.892 304.266 305.588 290.128 293.081C264.591 270.556 228.767 253.348 238.459 216.735C255.539 152.173 367.744 160.298 400.686 89.4951C427.062 32.7973 387.17 -40.5541 352.774 -89.9008" stroke="#B4BD3C" stroke-width="0.5" stroke-miterlimit="10"/>
<path d="M168.154 468.607C227.102 443.98 308.409 404.415 326.179 364.312C333.979 346.725 328.137 340.963 317.521 328.305C312.192 321.955 299.087 304.645 286.815 292.592C263.44 269.622 234.222 250.067 242.922 216.827C259.539 153.375 373.552 162.947 408.511 91.6225C436.367 34.7985 398.038 -40.2098 364.802 -90.7676" stroke="#B4BD3C" stroke-width="0.5" stroke-miterlimit="10"/>
<path d="M172.972 468.615C234.055 449.018 309.444 416.611 323.431 373.168C329.491 354.353 322.591 342.208 311.403 326.816C304.989 318.001 293.869 303.77 283.463 292.188C262.356 268.705 239.569 246.845 247.319 217.003C263.373 154.628 379.185 165.621 416.27 93.8428C445.53 36.8506 408.823 -39.781 376.764 -91.5584" stroke="#B4BD3C" stroke-width="0.5" stroke-miterlimit="10"/>
<path d="M177.813 468.615C241.023 454.056 310.621 428.655 320.707 381.983C333.778 321.702 236.954 275.224 251.782 217.13C267.424 155.882 385.069 168.347 424.096 96.0129C454.91 38.9282 419.691 -39.4025 388.792 -92.3911" stroke="#B4BD3C" stroke-width="0.5" stroke-miterlimit="10"/>
</g>
<path fill-rule="evenodd" clip-rule="evenodd" d="M31.0675 18.4042C32.0264 16.7026 34.1832 16.1005 35.8848 17.0594C37.5865 18.0183 38.1886 20.1751 37.2297 21.8767L26.1178 41.5955C25.1589 43.2972 23.0021 43.8993 21.3005 42.9404C19.5989 41.9815 18.9968 39.8247 19.9557 38.1231L31.0675 18.4042ZM43.092 18.4042C44.0509 16.7026 46.2076 16.1005 47.9093 17.0594C49.6109 18.0183 50.213 20.1751 49.2541 21.8767L42.3092 34.201C41.3503 35.9026 39.1935 36.5047 37.4919 35.5458C35.7902 34.5869 35.1881 32.4301 36.147 30.7285L43.092 18.4042ZM51.4634 36.1183C53.4166 36.1183 55 34.535 55 32.5818C55 30.6285 53.4166 29.0452 51.4634 29.0452C49.5102 29.0452 47.9268 30.6285 47.9268 32.5818C47.9268 34.535 49.5102 36.1183 51.4634 36.1183Z" fill="#FF9D00"/>
<path d="M33.282 100.58C31.238 100.412 29.572 100.104 28.284 99.656C27.024 99.18 26.086 98.788 25.47 98.48L27.276 93.65C28.256 94.126 29.418 94.56 30.762 94.952C32.134 95.344 33.576 95.54 35.088 95.54C36.796 95.54 37.958 95.316 38.574 94.868C39.218 94.392 39.54 93.734 39.54 92.894C39.54 92.362 39.414 91.914 39.162 91.55C38.91 91.158 38.546 90.808 38.07 90.5C37.594 90.192 36.992 89.898 36.264 89.618C35.536 89.31 34.696 88.988 33.744 88.652C32.82 88.316 31.91 87.952 31.014 87.56C30.146 87.14 29.348 86.636 28.62 86.048C27.92 85.46 27.346 84.746 26.898 83.906C26.478 83.038 26.268 82.002 26.268 80.798C26.268 79.874 26.394 78.992 26.646 78.152C26.926 77.284 27.346 76.5 27.906 75.8C28.466 75.1 29.194 74.512 30.09 74.036C30.986 73.532 32.05 73.168 33.282 72.944V68.408H38.574V72.776C40.03 72.916 41.276 73.126 42.312 73.406C43.376 73.686 44.216 73.966 44.832 74.246L43.53 79.286C42.606 78.894 41.528 78.558 40.296 78.278C39.092 77.998 37.818 77.858 36.474 77.858C35.13 77.858 34.164 78.082 33.576 78.53C32.988 78.978 32.694 79.566 32.694 80.294C32.694 80.742 32.778 81.134 32.946 81.47C33.142 81.778 33.436 82.058 33.828 82.31C34.22 82.562 34.696 82.814 35.256 83.066C35.844 83.29 36.544 83.542 37.356 83.822C38.588 84.27 39.722 84.76 40.758 85.292C41.822 85.824 42.732 86.44 43.488 87.14C44.272 87.812 44.874 88.61 45.294 89.534C45.742 90.458 45.966 91.536 45.966 92.768C45.966 93.608 45.84 94.448 45.588 95.288C45.336 96.1 44.916 96.856 44.328 97.556C43.74 98.256 42.97 98.858 42.018 99.362C41.094 99.866 39.946 100.23 38.574 100.454V105.578H33.282V100.58ZM68.7031 79.538C68.7031 80.602 68.4931 81.624 68.0731 82.604C67.6531 83.584 67.1071 84.536 66.4351 85.46C65.7631 86.356 65.0071 87.224 64.1671 88.064C63.3271 88.904 62.5011 89.702 61.6891 90.458C61.2691 90.85 60.8071 91.298 60.3031 91.802C59.8271 92.278 59.3651 92.768 58.9171 93.272C58.4691 93.776 58.0631 94.252 57.6991 94.7C57.3631 95.12 57.1531 95.47 57.0691 95.75H69.5851V101H50.1811C50.1251 100.692 50.0971 100.3 50.0971 99.824C50.0971 99.348 50.0971 99.012 50.0971 98.816C50.0971 97.472 50.3071 96.24 50.7271 95.12C51.1751 94 51.7491 92.964 52.4491 92.012C53.1491 91.032 53.9331 90.122 54.8011 89.282C55.6971 88.442 56.5791 87.602 57.4471 86.762C58.1191 86.118 58.7491 85.516 59.3371 84.956C59.9251 84.368 60.4431 83.808 60.8911 83.276C61.3391 82.716 61.6891 82.17 61.9411 81.638C62.1931 81.078 62.3191 80.518 62.3191 79.958C62.3191 78.726 61.9691 77.858 61.2691 77.354C60.5691 76.85 59.7011 76.598 58.6651 76.598C57.9091 76.598 57.1951 76.724 56.5231 76.976C55.8791 77.2 55.2771 77.48 54.7171 77.816C54.1851 78.124 53.7231 78.446 53.3311 78.782C52.9391 79.09 52.6451 79.342 52.4491 79.538L49.3411 75.17C50.5731 74.022 52.0011 73.084 53.6251 72.356C55.2771 71.6 57.0411 71.222 58.9171 71.222C60.6251 71.222 62.0951 71.418 63.3271 71.81C64.5591 72.202 65.5671 72.762 66.3511 73.49C67.1631 74.19 67.7511 75.058 68.1151 76.094C68.5071 77.102 68.7031 78.25 68.7031 79.538ZM94.1702 86.384C94.1702 91.284 93.2322 95.05 91.3562 97.682C89.5082 100.286 86.9462 101.588 83.6702 101.588C80.3942 101.588 77.8182 100.286 75.9422 97.682C74.0942 95.05 73.1702 91.284 73.1702 86.384C73.1702 83.948 73.4082 81.792 73.8842 79.916C74.3882 78.04 75.1022 76.458 76.0262 75.17C76.9502 73.882 78.0562 72.902 79.3442 72.23C80.6322 71.558 82.0742 71.222 83.6702 71.222C86.9462 71.222 89.5082 72.538 91.3562 75.17C93.2322 77.774 94.1702 81.512 94.1702 86.384ZM87.7862 86.384C87.7862 84.928 87.7162 83.612 87.5762 82.436C87.4362 81.232 87.2122 80.196 86.9042 79.328C86.5962 78.46 86.1762 77.788 85.6442 77.312C85.1122 76.836 84.4542 76.598 83.6702 76.598C82.8862 76.598 82.2282 76.836 81.6962 77.312C81.1922 77.788 80.7722 78.46 80.4362 79.328C80.1282 80.196 79.9042 81.232 79.7642 82.436C79.6242 83.612 79.5542 84.928 79.5542 86.384C79.5542 87.84 79.6242 89.17 79.7642 90.374C79.9042 91.578 80.1282 92.614 80.4362 93.482C80.7722 94.35 81.1922 95.022 81.6962 95.498C82.2282 95.974 82.8862 96.212 83.6702 96.212C84.4542 96.212 85.1122 95.974 85.6442 95.498C86.1762 95.022 86.5962 94.35 86.9042 93.482C87.2122 92.614 87.4362 91.578 87.5762 90.374C87.7162 89.17 87.7862 87.84 87.7862 86.384ZM107.121 87.308C106.505 87.308 105.847 87.364 105.147 87.476C104.447 87.588 103.901 87.742 103.509 87.938C103.509 88.05 103.495 88.218 103.467 88.442C103.467 88.666 103.467 88.862 103.467 89.03C103.467 90.038 103.537 90.99 103.677 91.886C103.817 92.782 104.055 93.566 104.391 94.238C104.727 94.91 105.175 95.442 105.735 95.834C106.295 96.198 106.995 96.38 107.835 96.38C108.535 96.38 109.123 96.24 109.599 95.96C110.103 95.652 110.509 95.274 110.817 94.826C111.153 94.378 111.391 93.888 111.531 93.356C111.699 92.796 111.783 92.264 111.783 91.76C111.783 90.332 111.419 89.24 110.691 88.484C109.991 87.7 108.801 87.308 107.121 87.308ZM107.919 82.436C109.739 82.436 111.279 82.688 112.539 83.192C113.827 83.668 114.877 84.326 115.689 85.166C116.501 86.006 117.089 86.986 117.453 88.106C117.817 89.226 117.999 90.416 117.999 91.676C117.999 92.796 117.789 93.944 117.369 95.12C116.977 96.296 116.361 97.36 115.521 98.312C114.709 99.264 113.659 100.048 112.371 100.664C111.111 101.28 109.613 101.588 107.877 101.588C104.377 101.588 101.717 100.482 99.8973 98.27C98.0773 96.058 97.1673 93.006 97.1673 89.114C97.1673 86.314 97.6013 83.836 98.4693 81.68C99.3373 79.524 100.569 77.718 102.165 76.262C103.789 74.778 105.735 73.658 108.003 72.902C110.299 72.118 112.875 71.712 115.731 71.684C115.787 72.552 115.843 73.406 115.899 74.246C115.955 75.058 116.011 75.912 116.067 76.808C114.639 76.836 113.295 76.976 112.035 77.228C110.803 77.452 109.669 77.816 108.633 78.32C107.625 78.824 106.743 79.482 105.987 80.294C105.231 81.078 104.643 82.044 104.223 83.192C104.839 82.912 105.469 82.716 106.113 82.604C106.757 82.492 107.359 82.436 107.919 82.436ZM128.556 97.682C128.556 98.942 128.15 99.908 127.338 100.58C126.554 101.224 125.658 101.546 124.65 101.546C123.642 101.546 122.732 101.224 121.92 100.58C121.136 99.908 120.744 98.942 120.744 97.682C120.744 96.422 121.136 95.47 121.92 94.826C122.732 94.154 123.642 93.818 124.65 93.818C125.658 93.818 126.554 94.154 127.338 94.826C128.15 95.47 128.556 96.422 128.556 97.682ZM152.248 86.384C152.248 91.284 151.31 95.05 149.434 97.682C147.586 100.286 145.024 101.588 141.748 101.588C138.472 101.588 135.896 100.286 134.02 97.682C132.172 95.05 131.248 91.284 131.248 86.384C131.248 83.948 131.486 81.792 131.962 79.916C132.466 78.04 133.18 76.458 134.104 75.17C135.028 73.882 136.134 72.902 137.422 72.23C138.71 71.558 140.152 71.222 141.748 71.222C145.024 71.222 147.586 72.538 149.434 75.17C151.31 77.774 152.248 81.512 152.248 86.384ZM145.864 86.384C145.864 84.928 145.794 83.612 145.654 82.436C145.514 81.232 145.29 80.196 144.982 79.328C144.674 78.46 144.254 77.788 143.722 77.312C143.19 76.836 142.532 76.598 141.748 76.598C140.964 76.598 140.306 76.836 139.774 77.312C139.27 77.788 138.85 78.46 138.514 79.328C138.206 80.196 137.982 81.232 137.842 82.436C137.702 83.612 137.632 84.928 137.632 86.384C137.632 87.84 137.702 89.17 137.842 90.374C137.982 91.578 138.206 92.614 138.514 93.482C138.85 94.35 139.27 95.022 139.774 95.498C140.306 95.974 140.964 96.212 141.748 96.212C142.532 96.212 143.19 95.974 143.722 95.498C144.254 95.022 144.674 94.35 144.982 93.482C145.29 92.614 145.514 91.578 145.654 90.374C145.794 89.17 145.864 87.84 145.864 86.384ZM176.119 86.384C176.119 91.284 175.181 95.05 173.305 97.682C171.457 100.286 168.895 101.588 165.619 101.588C162.343 101.588 159.767 100.286 157.891 97.682C156.043 95.05 155.119 91.284 155.119 86.384C155.119 83.948 155.357 81.792 155.833 79.916C156.337 78.04 157.051 76.458 157.975 75.17C158.899 73.882 160.005 72.902 161.293 72.23C162.581 71.558 164.023 71.222 165.619 71.222C168.895 71.222 171.457 72.538 173.305 75.17C175.181 77.774 176.119 81.512 176.119 86.384ZM169.735 86.384C169.735 84.928 169.665 83.612 169.525 82.436C169.385 81.232 169.161 80.196 168.853 79.328C168.545 78.46 168.125 77.788 167.593 77.312C167.061 76.836 166.403 76.598 165.619 76.598C164.835 76.598 164.177 76.836 163.645 77.312C163.141 77.788 162.721 78.46 162.385 79.328C162.077 80.196 161.853 81.232 161.713 82.436C161.573 83.612 161.503 84.928 161.503 86.384C161.503 87.84 161.573 89.17 161.713 90.374C161.853 91.578 162.077 92.614 162.385 93.482C162.721 94.35 163.141 95.022 163.645 95.498C164.177 95.974 164.835 96.212 165.619 96.212C166.403 96.212 167.061 95.974 167.593 95.498C168.125 95.022 168.545 94.35 168.853 93.482C169.161 92.614 169.385 91.578 169.525 90.374C169.665 89.17 169.735 87.84 169.735 86.384Z" fill="white"/>
<path d="M27.402 172.168C26.6833 172.168 26.0673 172.051 25.554 171.818C25.05 171.585 24.6347 171.281 24.308 170.908L25.26 169.606C25.5307 169.867 25.8293 170.082 26.156 170.25C26.4827 170.418 26.8327 170.502 27.206 170.502C27.6447 170.502 27.9947 170.413 28.256 170.236C28.5173 170.049 28.648 169.788 28.648 169.452C28.648 169.191 28.5827 168.967 28.452 168.78C28.3213 168.584 28.0833 168.435 27.738 168.332C27.3927 168.229 26.898 168.178 26.254 168.178V166.722C27.0567 166.722 27.6073 166.615 27.906 166.4C28.2047 166.176 28.354 165.887 28.354 165.532C28.354 165.224 28.2607 164.986 28.074 164.818C27.8873 164.641 27.6167 164.552 27.262 164.552C26.9447 164.552 26.6553 164.622 26.394 164.762C26.142 164.902 25.876 165.093 25.596 165.336L24.56 164.076C24.9707 163.721 25.4047 163.446 25.862 163.25C26.3193 163.045 26.8187 162.942 27.36 162.942C28.2747 162.942 29.012 163.157 29.572 163.586C30.1413 164.006 30.426 164.603 30.426 165.378C30.426 165.835 30.2953 166.227 30.034 166.554C29.782 166.881 29.418 167.147 28.942 167.352V167.408C29.4553 167.557 29.8753 167.814 30.202 168.178C30.538 168.533 30.706 168.999 30.706 169.578C30.706 170.129 30.552 170.6 30.244 170.992C29.9453 171.375 29.544 171.669 29.04 171.874C28.5453 172.07 27.9993 172.168 27.402 172.168ZM35.7785 172.168C35.1905 172.168 34.6632 172.065 34.1965 171.86C33.7298 171.655 33.3612 171.37 33.0905 171.006C32.8198 170.633 32.6845 170.208 32.6845 169.732C32.6845 169.191 32.8292 168.747 33.1185 168.402C33.4172 168.057 33.7765 167.772 34.1965 167.548V167.492C33.8512 167.231 33.5665 166.932 33.3425 166.596C33.1185 166.26 33.0065 165.859 33.0065 165.392C33.0065 164.888 33.1278 164.454 33.3705 164.09C33.6132 163.717 33.9492 163.432 34.3785 163.236C34.8078 163.04 35.2978 162.942 35.8485 162.942C36.6605 162.942 37.3138 163.166 37.8085 163.614C38.3032 164.053 38.5505 164.641 38.5505 165.378C38.5505 165.807 38.4338 166.19 38.2005 166.526C37.9672 166.853 37.6965 167.119 37.3885 167.324V167.38C37.8178 167.613 38.1818 167.912 38.4805 168.276C38.7792 168.64 38.9285 169.116 38.9285 169.704C38.9285 170.171 38.7978 170.591 38.5365 170.964C38.2752 171.337 37.9065 171.631 37.4305 171.846C36.9638 172.061 36.4132 172.168 35.7785 172.168ZM36.3385 166.82C36.7025 166.4 36.8845 165.966 36.8845 165.518C36.8845 165.173 36.7865 164.897 36.5905 164.692C36.4038 164.477 36.1425 164.37 35.8065 164.37C35.5358 164.37 35.3025 164.454 35.1065 164.622C34.9105 164.79 34.8125 165.047 34.8125 165.392C34.8125 165.756 34.9525 166.041 35.2325 166.246C35.5125 166.451 35.8812 166.643 36.3385 166.82ZM35.8205 170.74C36.1658 170.74 36.4505 170.651 36.6745 170.474C36.8985 170.287 37.0105 170.007 37.0105 169.634C37.0105 169.373 36.9312 169.158 36.7725 168.99C36.6138 168.813 36.3945 168.659 36.1145 168.528C35.8345 168.388 35.5078 168.239 35.1345 168.08C34.9385 168.257 34.7752 168.472 34.6445 168.724C34.5138 168.967 34.4485 169.223 34.4485 169.494C34.4485 169.886 34.5838 170.194 34.8545 170.418C35.1252 170.633 35.4472 170.74 35.8205 170.74ZM40.711 172V170.824C41.467 170.105 42.1343 169.457 42.713 168.878C43.301 168.29 43.7583 167.753 44.085 167.268C44.4116 166.773 44.575 166.316 44.575 165.896C44.575 165.457 44.4583 165.126 44.225 164.902C44.001 164.669 43.6976 164.552 43.315 164.552C42.9976 164.552 42.7083 164.645 42.447 164.832C42.195 165.009 41.957 165.219 41.733 165.462L40.613 164.356C41.0516 163.889 41.4996 163.539 41.957 163.306C42.4143 163.063 42.9603 162.942 43.595 162.942C44.183 162.942 44.6963 163.059 45.135 163.292C45.5736 163.525 45.9143 163.857 46.157 164.286C46.409 164.706 46.535 165.201 46.535 165.77C46.535 166.265 46.395 166.773 46.115 167.296C45.8443 167.809 45.4943 168.327 45.065 168.85C44.6356 169.363 44.1783 169.872 43.693 170.376C43.917 170.348 44.169 170.325 44.449 170.306C44.729 170.278 44.9716 170.264 45.177 170.264H46.969V172H40.711ZM50.6415 165.924C50.6415 166.391 50.7535 166.722 50.9775 166.918C51.2015 167.114 51.4815 167.212 51.8175 167.212C52.0508 167.212 52.2841 167.147 52.5175 167.016C52.7601 166.876 52.9701 166.647 53.1475 166.33C53.0541 165.63 52.8768 165.149 52.6155 164.888C52.3635 164.617 52.0788 164.482 51.7615 164.482C51.4628 164.482 51.2015 164.599 50.9775 164.832C50.7535 165.056 50.6415 165.42 50.6415 165.924ZM51.4955 172.168C50.9075 172.168 50.3941 172.061 49.9555 171.846C49.5261 171.631 49.1715 171.384 48.8915 171.104L49.9835 169.872C50.1328 170.04 50.3335 170.189 50.5855 170.32C50.8375 170.441 51.0941 170.502 51.3555 170.502C51.6915 170.502 51.9901 170.418 52.2515 170.25C52.5221 170.073 52.7415 169.783 52.9095 169.382C53.0775 168.971 53.1708 168.421 53.1895 167.73C52.9561 168.019 52.6668 168.248 52.3215 168.416C51.9855 168.584 51.6821 168.668 51.4115 168.668C50.9075 168.668 50.4548 168.57 50.0535 168.374C49.6615 168.178 49.3488 167.879 49.1155 167.478C48.8821 167.067 48.7655 166.549 48.7655 165.924C48.7655 165.308 48.9008 164.776 49.1715 164.328C49.4421 163.88 49.8015 163.539 50.2495 163.306C50.6975 163.063 51.1875 162.942 51.7195 162.942C52.2981 162.942 52.8441 163.096 53.3575 163.404C53.8708 163.703 54.2861 164.174 54.6035 164.818C54.9301 165.462 55.0935 166.307 55.0935 167.352C55.0935 168.453 54.9208 169.363 54.5755 170.082C54.2395 170.791 53.7961 171.319 53.2455 171.664C52.7041 172 52.1208 172.168 51.4955 172.168ZM62.1287 168.304H64.0047V166.862C64.0047 166.573 64.014 166.241 64.0327 165.868C64.0607 165.485 64.0793 165.154 64.0887 164.874H64.0327C63.9207 165.117 63.804 165.364 63.6827 165.616C63.5613 165.868 63.4353 166.12 63.3047 166.372L62.1287 168.304ZM64.0047 172V169.872H60.1547V168.458L63.4027 163.11H65.9227V168.304H66.9447V169.872H65.9227V172H64.0047ZM71.6672 172.168C71.0792 172.168 70.5518 172.065 70.0852 171.86C69.6185 171.655 69.2498 171.37 68.9792 171.006C68.7085 170.633 68.5732 170.208 68.5732 169.732C68.5732 169.191 68.7178 168.747 69.0072 168.402C69.3058 168.057 69.6652 167.772 70.0852 167.548V167.492C69.7398 167.231 69.4552 166.932 69.2312 166.596C69.0072 166.26 68.8952 165.859 68.8952 165.392C68.8952 164.888 69.0165 164.454 69.2592 164.09C69.5018 163.717 69.8378 163.432 70.2672 163.236C70.6965 163.04 71.1865 162.942 71.7372 162.942C72.5492 162.942 73.2025 163.166 73.6972 163.614C74.1918 164.053 74.4392 164.641 74.4392 165.378C74.4392 165.807 74.3225 166.19 74.0892 166.526C73.8558 166.853 73.5852 167.119 73.2772 167.324V167.38C73.7065 167.613 74.0705 167.912 74.3692 168.276C74.6678 168.64 74.8172 169.116 74.8172 169.704C74.8172 170.171 74.6865 170.591 74.4252 170.964C74.1638 171.337 73.7952 171.631 73.3192 171.846C72.8525 172.061 72.3018 172.168 71.6672 172.168ZM72.2272 166.82C72.5912 166.4 72.7732 165.966 72.7732 165.518C72.7732 165.173 72.6752 164.897 72.4792 164.692C72.2925 164.477 72.0312 164.37 71.6952 164.37C71.4245 164.37 71.1912 164.454 70.9952 164.622C70.7992 164.79 70.7012 165.047 70.7012 165.392C70.7012 165.756 70.8412 166.041 71.1212 166.246C71.4012 166.451 71.7698 166.643 72.2272 166.82ZM71.7092 170.74C72.0545 170.74 72.3392 170.651 72.5632 170.474C72.7872 170.287 72.8992 170.007 72.8992 169.634C72.8992 169.373 72.8198 169.158 72.6612 168.99C72.5025 168.813 72.2832 168.659 72.0032 168.528C71.7232 168.388 71.3965 168.239 71.0232 168.08C70.8272 168.257 70.6638 168.472 70.5332 168.724C70.4025 168.967 70.3372 169.223 70.3372 169.494C70.3372 169.886 70.4725 170.194 70.7432 170.418C71.0138 170.633 71.3358 170.74 71.7092 170.74ZM76.5996 172V170.824C77.3556 170.105 78.023 169.457 78.6016 168.878C79.1896 168.29 79.647 167.753 79.9736 167.268C80.3003 166.773 80.4636 166.316 80.4636 165.896C80.4636 165.457 80.347 165.126 80.1136 164.902C79.8896 164.669 79.5863 164.552 79.2036 164.552C78.8863 164.552 78.597 164.645 78.3356 164.832C78.0836 165.009 77.8456 165.219 77.6216 165.462L76.5016 164.356C76.9403 163.889 77.3883 163.539 77.8456 163.306C78.303 163.063 78.849 162.942 79.4836 162.942C80.0716 162.942 80.585 163.059 81.0236 163.292C81.4623 163.525 81.803 163.857 82.0456 164.286C82.2976 164.706 82.4236 165.201 82.4236 165.77C82.4236 166.265 82.2836 166.773 82.0036 167.296C81.733 167.809 81.383 168.327 80.9536 168.85C80.5243 169.363 80.067 169.872 79.5816 170.376C79.8056 170.348 80.0576 170.325 80.3376 170.306C80.6176 170.278 80.8603 170.264 81.0656 170.264H82.8576V172H76.5996ZM87.8741 172.168C86.9221 172.168 86.1521 171.771 85.5641 170.978C84.9855 170.185 84.6961 169.032 84.6961 167.52C84.6961 166.008 84.9855 164.869 85.5641 164.104C86.1521 163.329 86.9221 162.942 87.8741 162.942C88.8261 162.942 89.5915 163.329 90.1701 164.104C90.7581 164.869 91.0521 166.008 91.0521 167.52C91.0521 169.032 90.7581 170.185 90.1701 170.978C89.5915 171.771 88.8261 172.168 87.8741 172.168ZM87.8741 170.572C88.1075 170.572 88.3175 170.488 88.5041 170.32C88.6908 170.143 88.8355 169.835 88.9381 169.396C89.0501 168.957 89.1061 168.332 89.1061 167.52C89.1061 166.708 89.0501 166.087 88.9381 165.658C88.8355 165.229 88.6908 164.935 88.5041 164.776C88.3175 164.617 88.1075 164.538 87.8741 164.538C87.6501 164.538 87.4448 164.617 87.2581 164.776C87.0715 164.935 86.9221 165.229 86.8101 165.658C86.6981 166.087 86.6421 166.708 86.6421 167.52C86.6421 168.332 86.6981 168.957 86.8101 169.396C86.9221 169.835 87.0715 170.143 87.2581 170.32C87.4448 170.488 87.6501 170.572 87.8741 170.572ZM98.0173 168.304H99.8933V166.862C99.8933 166.573 99.9027 166.241 99.9213 165.868C99.9493 165.485 99.968 165.154 99.9773 164.874H99.9213C99.8093 165.117 99.6927 165.364 99.5713 165.616C99.45 165.868 99.324 166.12 99.1933 166.372L98.0173 168.304ZM99.8933 172V169.872H96.0433V168.458L99.2913 163.11H101.811V168.304H102.833V169.872H101.811V172H99.8933ZM107.724 167.898C107.49 167.898 107.252 167.968 107.01 168.108C106.776 168.239 106.566 168.463 106.38 168.78C106.473 169.48 106.65 169.965 106.912 170.236C107.173 170.497 107.458 170.628 107.766 170.628C108.074 170.628 108.335 170.516 108.55 170.292C108.774 170.059 108.886 169.69 108.886 169.186C108.886 168.719 108.774 168.388 108.55 168.192C108.335 167.996 108.06 167.898 107.724 167.898ZM107.808 172.168C107.238 172.168 106.697 172.019 106.184 171.72C105.67 171.412 105.25 170.936 104.924 170.292C104.606 169.639 104.448 168.794 104.448 167.758C104.448 166.647 104.616 165.737 104.952 165.028C105.297 164.319 105.74 163.796 106.282 163.46C106.832 163.115 107.42 162.942 108.046 162.942C108.634 162.942 109.142 163.049 109.572 163.264C110.001 163.469 110.356 163.717 110.636 164.006L109.558 165.238C109.408 165.07 109.203 164.925 108.942 164.804C108.69 164.673 108.433 164.608 108.172 164.608C107.845 164.608 107.546 164.697 107.276 164.874C107.005 165.042 106.786 165.331 106.618 165.742C106.459 166.143 106.366 166.689 106.338 167.38C106.571 167.081 106.856 166.853 107.192 166.694C107.537 166.526 107.845 166.442 108.116 166.442C108.881 166.442 109.511 166.666 110.006 167.114C110.51 167.553 110.762 168.243 110.762 169.186C110.762 169.802 110.626 170.334 110.356 170.782C110.085 171.221 109.726 171.561 109.278 171.804C108.839 172.047 108.349 172.168 107.808 172.168ZM112.488 172V170.824C113.244 170.105 113.912 169.457 114.49 168.878C115.078 168.29 115.536 167.753 115.862 167.268C116.189 166.773 116.352 166.316 116.352 165.896C116.352 165.457 116.236 165.126 116.002 164.902C115.778 164.669 115.475 164.552 115.092 164.552C114.775 164.552 114.486 164.645 114.224 164.832C113.972 165.009 113.734 165.219 113.51 165.462L112.39 164.356C112.829 163.889 113.277 163.539 113.734 163.306C114.192 163.063 114.738 162.942 115.372 162.942C115.96 162.942 116.474 163.059 116.912 163.292C117.351 163.525 117.692 163.857 117.934 164.286C118.186 164.706 118.312 165.201 118.312 165.77C118.312 166.265 118.172 166.773 117.892 167.296C117.622 167.809 117.272 168.327 116.842 168.85C116.413 169.363 115.956 169.872 115.47 170.376C115.694 170.348 115.946 170.325 116.226 170.306C116.506 170.278 116.749 170.264 116.954 170.264H118.746V172H112.488ZM122.419 165.924C122.419 166.391 122.531 166.722 122.755 166.918C122.979 167.114 123.259 167.212 123.595 167.212C123.828 167.212 124.061 167.147 124.295 167.016C124.537 166.876 124.747 166.647 124.925 166.33C124.831 165.63 124.654 165.149 124.393 164.888C124.141 164.617 123.856 164.482 123.539 164.482C123.24 164.482 122.979 164.599 122.755 164.832C122.531 165.056 122.419 165.42 122.419 165.924ZM123.273 172.168C122.685 172.168 122.171 172.061 121.733 171.846C121.303 171.631 120.949 171.384 120.669 171.104L121.761 169.872C121.91 170.04 122.111 170.189 122.363 170.32C122.615 170.441 122.871 170.502 123.133 170.502C123.469 170.502 123.767 170.418 124.029 170.25C124.299 170.073 124.519 169.783 124.687 169.382C124.855 168.971 124.948 168.421 124.967 167.73C124.733 168.019 124.444 168.248 124.099 168.416C123.763 168.584 123.459 168.668 123.189 168.668C122.685 168.668 122.232 168.57 121.831 168.374C121.439 168.178 121.126 167.879 120.893 167.478C120.659 167.067 120.543 166.549 120.543 165.924C120.543 165.308 120.678 164.776 120.949 164.328C121.219 163.88 121.579 163.539 122.027 163.306C122.475 163.063 122.965 162.942 123.497 162.942C124.075 162.942 124.621 163.096 125.135 163.404C125.648 163.703 126.063 164.174 126.381 164.818C126.707 165.462 126.871 166.307 126.871 167.352C126.871 168.453 126.698 169.363 126.353 170.082C126.017 170.791 125.573 171.319 125.023 171.664C124.481 172 123.898 172.168 123.273 172.168ZM135.124 172.168C134.396 172.168 133.78 172.047 133.276 171.804C132.772 171.561 132.343 171.267 131.988 170.922L132.912 169.62C133.183 169.863 133.477 170.073 133.794 170.25C134.111 170.418 134.457 170.502 134.83 170.502C135.287 170.502 135.651 170.385 135.922 170.152C136.193 169.919 136.328 169.573 136.328 169.116C136.328 168.668 136.197 168.327 135.936 168.094C135.675 167.861 135.339 167.744 134.928 167.744C134.667 167.744 134.447 167.777 134.27 167.842C134.102 167.907 133.883 168.024 133.612 168.192L132.688 167.604L132.94 163.11H137.98V164.846H134.718L134.564 166.512C134.872 166.372 135.203 166.302 135.558 166.302C136.071 166.302 136.538 166.4 136.958 166.596C137.387 166.792 137.733 167.095 137.994 167.506C138.255 167.907 138.386 168.425 138.386 169.06C138.386 169.713 138.232 170.273 137.924 170.74C137.625 171.207 137.229 171.561 136.734 171.804C136.239 172.047 135.703 172.168 135.124 172.168ZM143.458 172.168C142.506 172.168 141.736 171.771 141.148 170.978C140.57 170.185 140.28 169.032 140.28 167.52C140.28 166.008 140.57 164.869 141.148 164.104C141.736 163.329 142.506 162.942 143.458 162.942C144.41 162.942 145.176 163.329 145.754 164.104C146.342 164.869 146.636 166.008 146.636 167.52C146.636 169.032 146.342 170.185 145.754 170.978C145.176 171.771 144.41 172.168 143.458 172.168ZM143.458 170.572C143.692 170.572 143.902 170.488 144.088 170.32C144.275 170.143 144.42 169.835 144.522 169.396C144.634 168.957 144.69 168.332 144.69 167.52C144.69 166.708 144.634 166.087 144.522 165.658C144.42 165.229 144.275 164.935 144.088 164.776C143.902 164.617 143.692 164.538 143.458 164.538C143.234 164.538 143.029 164.617 142.842 164.776C142.656 164.935 142.506 165.229 142.394 165.658C142.282 166.087 142.226 166.708 142.226 167.52C142.226 168.332 142.282 168.957 142.394 169.396C142.506 169.835 142.656 170.143 142.842 170.32C143.029 170.488 143.234 170.572 143.458 170.572ZM148.377 172V170.824C149.133 170.105 149.8 169.457 150.379 168.878C150.967 168.29 151.424 167.753 151.751 167.268C152.078 166.773 152.241 166.316 152.241 165.896C152.241 165.457 152.124 165.126 151.891 164.902C151.667 164.669 151.364 164.552 150.981 164.552C150.664 164.552 150.374 164.645 150.113 164.832C149.861 165.009 149.623 165.219 149.399 165.462L148.279 164.356C148.718 163.889 149.166 163.539 149.623 163.306C150.08 163.063 150.626 162.942 151.261 162.942C151.849 162.942 152.362 163.059 152.801 163.292C153.24 163.525 153.58 163.857 153.823 164.286C154.075 164.706 154.201 165.201 154.201 165.77C154.201 166.265 154.061 166.773 153.781 167.296C153.51 167.809 153.16 168.327 152.731 168.85C152.302 169.363 151.844 169.872 151.359 170.376C151.583 170.348 151.835 170.325 152.115 170.306C152.395 170.278 152.638 170.264 152.843 170.264H154.635V172H148.377ZM159.413 172.168C158.685 172.168 158.069 172.047 157.565 171.804C157.061 171.561 156.632 171.267 156.277 170.922L157.201 169.62C157.472 169.863 157.766 170.073 158.083 170.25C158.401 170.418 158.746 170.502 159.119 170.502C159.577 170.502 159.941 170.385 160.211 170.152C160.482 169.919 160.617 169.573 160.617 169.116C160.617 168.668 160.487 168.327 160.225 168.094C159.964 167.861 159.628 167.744 159.217 167.744C158.956 167.744 158.737 167.777 158.559 167.842C158.391 167.907 158.172 168.024 157.901 168.192L156.977 167.604L157.229 163.11H162.269V164.846H159.007L158.853 166.512C159.161 166.372 159.493 166.302 159.847 166.302C160.361 166.302 160.827 166.4 161.247 166.596C161.677 166.792 162.022 167.095 162.283 167.506C162.545 167.907 162.675 168.425 162.675 169.06C162.675 169.713 162.521 170.273 162.213 170.74C161.915 171.207 161.518 171.561 161.023 171.804C160.529 172.047 159.992 172.168 159.413 172.168Z" fill="white"/>
<path d="M213.458 172.168C212.73 172.168 212.114 172.047 211.61 171.804C211.106 171.561 210.677 171.267 210.322 170.922L211.246 169.62C211.517 169.863 211.811 170.073 212.128 170.25C212.445 170.418 212.791 170.502 213.164 170.502C213.621 170.502 213.985 170.385 214.256 170.152C214.527 169.919 214.662 169.573 214.662 169.116C214.662 168.668 214.531 168.327 214.27 168.094C214.009 167.861 213.673 167.744 213.262 167.744C213.001 167.744 212.781 167.777 212.604 167.842C212.436 167.907 212.217 168.024 211.946 168.192L211.022 167.604L211.274 163.11H216.314V164.846H213.052L212.898 166.512C213.206 166.372 213.537 166.302 213.892 166.302C214.405 166.302 214.872 166.4 215.292 166.596C215.721 166.792 216.067 167.095 216.328 167.506C216.589 167.907 216.72 168.425 216.72 169.06C216.72 169.713 216.566 170.273 216.258 170.74C215.959 171.207 215.563 171.561 215.068 171.804C214.573 172.047 214.037 172.168 213.458 172.168ZM218.278 174.24L221.092 162.06H222.436L219.622 174.24H218.278ZM224.059 172V170.824C224.815 170.105 225.482 169.457 226.061 168.878C226.649 168.29 227.106 167.753 227.433 167.268C227.759 166.773 227.923 166.316 227.923 165.896C227.923 165.457 227.806 165.126 227.573 164.902C227.349 164.669 227.045 164.552 226.663 164.552C226.345 164.552 226.056 164.645 225.795 164.832C225.543 165.009 225.305 165.219 225.081 165.462L223.961 164.356C224.399 163.889 224.847 163.539 225.305 163.306C225.762 163.063 226.308 162.942 226.943 162.942C227.531 162.942 228.044 163.059 228.483 163.292C228.921 163.525 229.262 163.857 229.505 164.286C229.757 164.706 229.883 165.201 229.883 165.77C229.883 166.265 229.743 166.773 229.463 167.296C229.192 167.809 228.842 168.327 228.413 168.85C227.983 169.363 227.526 169.872 227.041 170.376C227.265 170.348 227.517 170.325 227.797 170.306C228.077 170.278 228.319 170.264 228.525 170.264H230.317V172H224.059ZM233.989 165.924C233.989 166.391 234.101 166.722 234.325 166.918C234.549 167.114 234.829 167.212 235.165 167.212C235.398 167.212 235.632 167.147 235.865 167.016C236.108 166.876 236.318 166.647 236.495 166.33C236.402 165.63 236.224 165.149 235.963 164.888C235.711 164.617 235.426 164.482 235.109 164.482C234.81 164.482 234.549 164.599 234.325 164.832C234.101 165.056 233.989 165.42 233.989 165.924ZM234.843 172.168C234.255 172.168 233.742 172.061 233.303 171.846C232.874 171.631 232.519 171.384 232.239 171.104L233.331 169.872C233.48 170.04 233.681 170.189 233.933 170.32C234.185 170.441 234.442 170.502 234.703 170.502C235.039 170.502 235.338 170.418 235.599 170.25C235.87 170.073 236.089 169.783 236.257 169.382C236.425 168.971 236.518 168.421 236.537 167.73C236.304 168.019 236.014 168.248 235.669 168.416C235.333 168.584 235.03 168.668 234.759 168.668C234.255 168.668 233.802 168.57 233.401 168.374C233.009 168.178 232.696 167.879 232.463 167.478C232.23 167.067 232.113 166.549 232.113 165.924C232.113 165.308 232.248 164.776 232.519 164.328C232.79 163.88 233.149 163.539 233.597 163.306C234.045 163.063 234.535 162.942 235.067 162.942C235.646 162.942 236.192 163.096 236.705 163.404C237.218 163.703 237.634 164.174 237.951 164.818C238.278 165.462 238.441 166.307 238.441 167.352C238.441 168.453 238.268 169.363 237.923 170.082C237.587 170.791 237.144 171.319 236.593 171.664C236.052 172 235.468 172.168 234.843 172.168Z" fill="white"/>
<path d="M25.08 151V143.128H26.076V146.428H29.736V143.128H30.744V151H29.736V147.292H26.076V151H25.08ZM32.8121 151V145.168H33.7961V151H32.8121ZM33.3161 143.968C33.1241 143.968 32.9641 143.912 32.8361 143.8C32.7161 143.68 32.6561 143.52 32.6561 143.32C32.6561 143.128 32.7161 142.972 32.8361 142.852C32.9641 142.732 33.1241 142.672 33.3161 142.672C33.5081 142.672 33.6641 142.732 33.7841 142.852C33.9121 142.972 33.9761 143.128 33.9761 143.32C33.9761 143.52 33.9121 143.68 33.7841 143.8C33.6641 143.912 33.5081 143.968 33.3161 143.968ZM35.7653 151V145.168H36.5813L36.6653 146.008H36.7013C36.9573 145.728 37.2373 145.496 37.5413 145.312C37.8453 145.12 38.1693 145.024 38.5133 145.024C38.9613 145.024 39.3093 145.124 39.5573 145.324C39.8133 145.516 40.0013 145.788 40.1213 146.14C40.4253 145.812 40.7333 145.544 41.0453 145.336C41.3573 145.128 41.6893 145.024 42.0413 145.024C42.6413 145.024 43.0853 145.22 43.3733 145.612C43.6693 145.996 43.8173 146.56 43.8173 147.304V151H42.8333V147.436C42.8333 146.892 42.7453 146.496 42.5693 146.248C42.3933 146 42.1213 145.876 41.7533 145.876C41.3213 145.876 40.8333 146.176 40.2893 146.776V151H39.3053V147.436C39.3053 146.892 39.2173 146.496 39.0413 146.248C38.8653 146 38.5893 145.876 38.2133 145.876C37.7813 145.876 37.2933 146.176 36.7493 146.776V151H35.7653ZM47.0585 151.144C46.5705 151.144 46.1625 151 45.8345 150.712C45.5145 150.416 45.3545 150.008 45.3545 149.488C45.3545 148.848 45.6385 148.36 46.2065 148.024C46.7825 147.68 47.6905 147.44 48.9305 147.304C48.9305 147.056 48.8945 146.82 48.8225 146.596C48.7585 146.372 48.6385 146.192 48.4625 146.056C48.2945 145.912 48.0505 145.84 47.7305 145.84C47.3945 145.84 47.0785 145.904 46.7825 146.032C46.4865 146.16 46.2225 146.304 45.9905 146.464L45.6065 145.78C45.8785 145.604 46.2105 145.436 46.6025 145.276C47.0025 145.108 47.4345 145.024 47.8985 145.024C48.6105 145.024 49.1265 145.244 49.4465 145.684C49.7665 146.116 49.9265 146.696 49.9265 147.424V151H49.1105L49.0265 150.304H48.9905C48.7185 150.528 48.4185 150.724 48.0905 150.892C47.7705 151.06 47.4265 151.144 47.0585 151.144ZM47.3465 150.352C47.6265 150.352 47.8905 150.284 48.1385 150.148C48.3865 150.012 48.6505 149.82 48.9305 149.572V147.952C47.9625 148.072 47.2825 148.252 46.8905 148.492C46.5065 148.732 46.3145 149.04 46.3145 149.416C46.3145 149.744 46.4145 149.984 46.6145 150.136C46.8145 150.28 47.0585 150.352 47.3465 150.352ZM51.7613 151V145.168H52.5773L52.6613 146.008H52.6973C52.9773 145.728 53.2733 145.496 53.5853 145.312C53.8973 145.12 54.2533 145.024 54.6533 145.024C55.2693 145.024 55.7173 145.22 55.9973 145.612C56.2853 145.996 56.4293 146.56 56.4293 147.304V151H55.4453V147.436C55.4453 146.892 55.3573 146.496 55.1813 146.248C55.0053 146 54.7253 145.876 54.3413 145.876C54.0453 145.876 53.7773 145.952 53.5373 146.104C53.3053 146.256 53.0413 146.48 52.7453 146.776V151H51.7613ZM59.8478 151.144C59.4318 151.144 59.0358 151.068 58.6598 150.916C58.2838 150.756 57.9558 150.564 57.6758 150.34L58.1678 149.68C58.4238 149.88 58.6878 150.048 58.9598 150.184C59.2318 150.312 59.5398 150.376 59.8838 150.376C60.2678 150.376 60.5558 150.288 60.7478 150.112C60.9398 149.928 61.0358 149.712 61.0358 149.464C61.0358 149.264 60.9678 149.096 60.8318 148.96C60.7038 148.824 60.5358 148.712 60.3278 148.624C60.1278 148.528 59.9198 148.44 59.7038 148.36C59.4318 148.256 59.1638 148.14 58.8998 148.012C58.6358 147.876 58.4198 147.704 58.2518 147.496C58.0838 147.28 57.9998 147.008 57.9998 146.68C57.9998 146.208 58.1758 145.816 58.5278 145.504C58.8878 145.184 59.3838 145.024 60.0158 145.024C60.3758 145.024 60.7118 145.088 61.0238 145.216C61.3358 145.344 61.6038 145.5 61.8278 145.684L61.3478 146.308C61.1478 146.156 60.9398 146.032 60.7238 145.936C60.5078 145.84 60.2718 145.792 60.0158 145.792C59.6478 145.792 59.3758 145.876 59.1998 146.044C59.0318 146.212 58.9478 146.408 58.9478 146.632C58.9478 146.816 59.0078 146.968 59.1278 147.088C59.2478 147.2 59.4038 147.3 59.5958 147.388C59.7878 147.468 59.9918 147.552 60.2078 147.64C60.4878 147.744 60.7638 147.864 61.0358 148C61.3078 148.128 61.5318 148.304 61.7078 148.528C61.8918 148.744 61.9838 149.036 61.9838 149.404C61.9838 149.716 61.8998 150.004 61.7318 150.268C61.5718 150.532 61.3318 150.744 61.0118 150.904C60.6998 151.064 60.3118 151.144 59.8478 151.144ZM63.3512 151V142.456H64.3352V144.784L64.2992 145.984C64.5792 145.72 64.8712 145.496 65.1752 145.312C65.4872 145.12 65.8432 145.024 66.2432 145.024C66.8592 145.024 67.3072 145.22 67.5872 145.612C67.8752 145.996 68.0192 146.56 68.0192 147.304V151H67.0352V147.436C67.0352 146.892 66.9472 146.496 66.7712 146.248C66.5952 146 66.3152 145.876 65.9312 145.876C65.6352 145.876 65.3672 145.952 65.1272 146.104C64.8952 146.256 64.6312 146.48 64.3352 146.776V151H63.3512ZM71.5825 151.144C70.9665 151.144 70.5145 150.952 70.2265 150.568C69.9385 150.176 69.7945 149.608 69.7945 148.864V145.168H70.7905V148.732C70.7905 149.276 70.8745 149.672 71.0425 149.92C71.2185 150.168 71.4985 150.292 71.8825 150.292C72.1865 150.292 72.4545 150.216 72.6865 150.064C72.9265 149.904 73.1825 149.652 73.4545 149.308V145.168H74.4385V151H73.6225L73.5385 150.088H73.5025C73.2305 150.408 72.9425 150.664 72.6385 150.856C72.3345 151.048 71.9825 151.144 71.5825 151.144ZM80.3442 151L77.8242 143.128H78.8922L80.1522 147.376C80.2962 147.84 80.4202 148.276 80.5242 148.684C80.6362 149.084 80.7682 149.516 80.9202 149.98H80.9682C81.1122 149.516 81.2402 149.084 81.3522 148.684C81.4642 148.276 81.5882 147.84 81.7242 147.376L82.9842 143.128H84.0042L81.5082 151H80.3442ZM86.0585 151.144C85.5705 151.144 85.1625 151 84.8345 150.712C84.5145 150.416 84.3545 150.008 84.3545 149.488C84.3545 148.848 84.6385 148.36 85.2065 148.024C85.7825 147.68 86.6905 147.44 87.9305 147.304C87.9305 147.056 87.8945 146.82 87.8225 146.596C87.7585 146.372 87.6385 146.192 87.4625 146.056C87.2945 145.912 87.0505 145.84 86.7305 145.84C86.3945 145.84 86.0785 145.904 85.7825 146.032C85.4865 146.16 85.2225 146.304 84.9905 146.464L84.6065 145.78C84.8785 145.604 85.2105 145.436 85.6025 145.276C86.0025 145.108 86.4345 145.024 86.8985 145.024C87.6105 145.024 88.1265 145.244 88.4465 145.684C88.7665 146.116 88.9265 146.696 88.9265 147.424V151H88.1105L88.0265 150.304H87.9905C87.7185 150.528 87.4185 150.724 87.0905 150.892C86.7705 151.06 86.4265 151.144 86.0585 151.144ZM86.3465 150.352C86.6265 150.352 86.8905 150.284 87.1385 150.148C87.3865 150.012 87.6505 149.82 87.9305 149.572V147.952C86.9625 148.072 86.2825 148.252 85.8905 148.492C85.5065 148.732 85.3145 149.04 85.3145 149.416C85.3145 149.744 85.4145 149.984 85.6145 150.136C85.8145 150.28 86.0585 150.352 86.3465 150.352ZM92.7293 153.688C92.0173 153.688 91.4373 153.552 90.9893 153.28C90.5413 153.008 90.3173 152.62 90.3173 152.116C90.3173 151.868 90.3933 151.628 90.5453 151.396C90.6973 151.172 90.9053 150.972 91.1693 150.796V150.748C91.0253 150.66 90.9013 150.536 90.7973 150.376C90.7013 150.216 90.6533 150.024 90.6533 149.8C90.6533 149.552 90.7213 149.336 90.8573 149.152C90.9933 148.968 91.1373 148.824 91.2893 148.72V148.672C91.0973 148.512 90.9213 148.296 90.7613 148.024C90.6093 147.752 90.5333 147.444 90.5333 147.1C90.5333 146.676 90.6333 146.308 90.8333 145.996C91.0333 145.684 91.3013 145.444 91.6373 145.276C91.9733 145.108 92.3373 145.024 92.7293 145.024C92.8893 145.024 93.0413 145.04 93.1853 145.072C93.3293 145.096 93.4533 145.128 93.5573 145.168H95.5853V145.924H94.3853C94.5213 146.052 94.6333 146.224 94.7213 146.44C94.8173 146.648 94.8653 146.876 94.8653 147.124C94.8653 147.54 94.7693 147.9 94.5773 148.204C94.3853 148.508 94.1293 148.744 93.8093 148.912C93.4893 149.072 93.1293 149.152 92.7293 149.152C92.4173 149.152 92.1253 149.084 91.8533 148.948C91.7493 149.036 91.6613 149.136 91.5893 149.248C91.5173 149.352 91.4813 149.484 91.4813 149.644C91.4813 149.828 91.5533 149.98 91.6973 150.1C91.8493 150.22 92.1213 150.28 92.5133 150.28H93.6413C94.3213 150.28 94.8293 150.392 95.1653 150.616C95.5093 150.832 95.6813 151.184 95.6813 151.672C95.6813 152.032 95.5613 152.364 95.3213 152.668C95.0813 152.972 94.7413 153.216 94.3013 153.4C93.8613 153.592 93.3373 153.688 92.7293 153.688ZM92.7293 148.492C93.0653 148.492 93.3533 148.368 93.5933 148.12C93.8413 147.864 93.9653 147.524 93.9653 147.1C93.9653 146.676 93.8453 146.344 93.6053 146.104C93.3653 145.864 93.0733 145.744 92.7293 145.744C92.3853 145.744 92.0933 145.864 91.8533 146.104C91.6133 146.344 91.4933 146.676 91.4933 147.1C91.4933 147.524 91.6133 147.864 91.8533 148.12C92.1013 148.368 92.3933 148.492 92.7293 148.492ZM92.8733 153.004C93.4333 153.004 93.8813 152.88 94.2173 152.632C94.5533 152.392 94.7213 152.12 94.7213 151.816C94.7213 151.544 94.6173 151.356 94.4093 151.252C94.2093 151.148 93.9213 151.096 93.5453 151.096H92.5373C92.4253 151.096 92.3013 151.088 92.1653 151.072C92.0373 151.056 91.9093 151.032 91.7813 151C91.5733 151.152 91.4213 151.312 91.3253 151.48C91.2293 151.648 91.1813 151.816 91.1813 151.984C91.1813 152.296 91.3293 152.544 91.6253 152.728C91.9293 152.912 92.3453 153.004 92.8733 153.004ZM96.8082 151V142.456H97.7922V144.784L97.7562 145.984C98.0362 145.72 98.3282 145.496 98.6322 145.312C98.9442 145.12 99.3002 145.024 99.7002 145.024C100.316 145.024 100.764 145.22 101.044 145.612C101.332 145.996 101.476 146.56 101.476 147.304V151H100.492V147.436C100.492 146.892 100.404 146.496 100.228 146.248C100.052 146 99.7722 145.876 99.3882 145.876C99.0922 145.876 98.8242 145.952 98.5842 146.104C98.3522 146.256 98.0882 146.48 97.7922 146.776V151H96.8082ZM105.7 151.144C105.18 151.144 104.708 151.024 104.284 150.784C103.86 150.536 103.524 150.184 103.276 149.728C103.028 149.272 102.904 148.728 102.904 148.096C102.904 147.456 103.028 146.908 103.276 146.452C103.532 145.996 103.86 145.644 104.26 145.396C104.66 145.148 105.08 145.024 105.52 145.024C106.264 145.024 106.836 145.272 107.236 145.768C107.644 146.264 107.848 146.928 107.848 147.76C107.848 147.864 107.844 147.968 107.836 148.072C107.836 148.168 107.828 148.252 107.812 148.324H103.876C103.916 148.94 104.108 149.432 104.452 149.8C104.804 150.168 105.26 150.352 105.82 150.352C106.1 150.352 106.356 150.312 106.588 150.232C106.828 150.144 107.056 150.032 107.272 149.896L107.62 150.544C107.372 150.704 107.088 150.844 106.768 150.964C106.456 151.084 106.1 151.144 105.7 151.144ZM103.864 147.616H106.984C106.984 147.024 106.856 146.576 106.6 146.272C106.352 145.96 106 145.804 105.544 145.804C105.136 145.804 104.768 145.964 104.44 146.284C104.12 146.596 103.928 147.04 103.864 147.616ZM110.333 151.144C109.965 151.144 109.697 151.032 109.529 150.808C109.369 150.576 109.289 150.248 109.289 149.824V142.456H110.273V149.896C110.273 150.048 110.301 150.16 110.357 150.232C110.413 150.296 110.477 150.328 110.549 150.328C110.581 150.328 110.609 150.328 110.633 150.328C110.665 150.32 110.709 150.312 110.765 150.304L110.897 151.048C110.833 151.08 110.757 151.104 110.669 151.12C110.581 151.136 110.469 151.144 110.333 151.144ZM113.691 151.144C113.203 151.144 112.795 151 112.467 150.712C112.147 150.416 111.987 150.008 111.987 149.488C111.987 148.848 112.271 148.36 112.839 148.024C113.415 147.68 114.323 147.44 115.563 147.304C115.563 147.056 115.527 146.82 115.455 146.596C115.391 146.372 115.271 146.192 115.095 146.056C114.927 145.912 114.683 145.84 114.363 145.84C114.027 145.84 113.711 145.904 113.415 146.032C113.119 146.16 112.855 146.304 112.623 146.464L112.239 145.78C112.511 145.604 112.843 145.436 113.235 145.276C113.635 145.108 114.067 145.024 114.531 145.024C115.243 145.024 115.759 145.244 116.079 145.684C116.399 146.116 116.559 146.696 116.559 147.424V151H115.743L115.659 150.304H115.623C115.351 150.528 115.051 150.724 114.723 150.892C114.403 151.06 114.059 151.144 113.691 151.144ZM113.979 150.352C114.259 150.352 114.523 150.284 114.771 150.148C115.019 150.012 115.283 149.82 115.563 149.572V147.952C114.595 148.072 113.915 148.252 113.523 148.492C113.139 148.732 112.947 149.04 112.947 149.416C112.947 149.744 113.047 149.984 113.247 150.136C113.447 150.28 113.691 150.352 113.979 150.352Z" fill="white" fill-opacity="0.2"/>
<path d="M212.52 151L210 143.128H211.068L212.328 147.376C212.472 147.84 212.596 148.276 212.7 148.684C212.812 149.084 212.944 149.516 213.096 149.98H213.144C213.288 149.516 213.416 149.084 213.528 148.684C213.64 148.276 213.764 147.84 213.9 147.376L215.16 143.128H216.18L213.684 151H212.52ZM218.234 151.144C217.746 151.144 217.338 151 217.01 150.712C216.69 150.416 216.53 150.008 216.53 149.488C216.53 148.848 216.814 148.36 217.382 148.024C217.958 147.68 218.866 147.44 220.106 147.304C220.106 147.056 220.07 146.82 219.998 146.596C219.934 146.372 219.814 146.192 219.638 146.056C219.47 145.912 219.226 145.84 218.906 145.84C218.57 145.84 218.254 145.904 217.958 146.032C217.662 146.16 217.398 146.304 217.166 146.464L216.782 145.78C217.054 145.604 217.386 145.436 217.778 145.276C218.178 145.108 218.61 145.024 219.074 145.024C219.786 145.024 220.302 145.244 220.622 145.684C220.942 146.116 221.102 146.696 221.102 147.424V151H220.286L220.202 150.304H220.166C219.894 150.528 219.594 150.724 219.266 150.892C218.946 151.06 218.602 151.144 218.234 151.144ZM218.522 150.352C218.802 150.352 219.066 150.284 219.314 150.148C219.562 150.012 219.826 149.82 220.106 149.572V147.952C219.138 148.072 218.458 148.252 218.066 148.492C217.682 148.732 217.49 149.04 217.49 149.416C217.49 149.744 217.59 149.984 217.79 150.136C217.99 150.28 218.234 150.352 218.522 150.352ZM223.981 151.144C223.613 151.144 223.345 151.032 223.177 150.808C223.017 150.576 222.937 150.248 222.937 149.824V142.456H223.921V149.896C223.921 150.048 223.949 150.16 224.005 150.232C224.061 150.296 224.125 150.328 224.197 150.328C224.229 150.328 224.257 150.328 224.281 150.328C224.313 150.32 224.357 150.312 224.413 150.304L224.545 151.048C224.481 151.08 224.405 151.104 224.317 151.12C224.229 151.136 224.117 151.144 223.981 151.144ZM225.996 151V145.168H226.98V151H225.996ZM226.5 143.968C226.308 143.968 226.148 143.912 226.02 143.8C225.9 143.68 225.84 143.52 225.84 143.32C225.84 143.128 225.9 142.972 226.02 142.852C226.148 142.732 226.308 142.672 226.5 142.672C226.692 142.672 226.848 142.732 226.968 142.852C227.096 142.972 227.16 143.128 227.16 143.32C227.16 143.52 227.096 143.68 226.968 143.8C226.848 143.912 226.692 143.968 226.5 143.968ZM230.941 151.144C230.213 151.144 229.629 150.88 229.189 150.352C228.749 149.816 228.529 149.064 228.529 148.096C228.529 147.464 228.645 146.92 228.877 146.464C229.117 146 229.429 145.644 229.813 145.396C230.205 145.148 230.621 145.024 231.061 145.024C231.397 145.024 231.689 145.084 231.937 145.204C232.185 145.324 232.437 145.488 232.693 145.696L232.645 144.7V142.456H233.641V151H232.825L232.741 150.316H232.705C232.481 150.54 232.217 150.736 231.913 150.904C231.609 151.064 231.285 151.144 230.941 151.144ZM231.157 150.316C231.669 150.316 232.165 150.048 232.645 149.512V146.464C232.397 146.24 232.157 146.084 231.925 145.996C231.701 145.9 231.469 145.852 231.229 145.852C230.917 145.852 230.633 145.948 230.377 146.14C230.129 146.324 229.929 146.584 229.777 146.92C229.625 147.248 229.549 147.636 229.549 148.084C229.549 148.78 229.689 149.328 229.969 149.728C230.249 150.12 230.645 150.316 231.157 150.316Z" fill="white"/>
<defs>
<clipPath id="clip0_104_906">
<rect width="90" height="200" fill="white" transform="translate(264)"/>
</clipPath>
</defs>
</svg>
