<svg width="40" height="40" viewBox="0 0 40 40" fill="none" xmlns="http://www.w3.org/2000/svg">
<rect width="40" height="40" rx="20" fill="#00A1CA" fill-opacity="0.2"/>
<path d="M29.5266 22.862V11.43C29.5251 10.1672 29.0227 8.95652 28.1298 8.06356C27.2368 7.17059 26.0261 6.66826 24.7633 6.66675H15.2367C13.9738 6.66826 12.7632 7.17059 11.8702 8.06356C10.9772 8.95652 10.4749 10.1672 10.4734 11.43V22.862C10.4752 23.9515 10.8501 25.0076 11.5356 25.8544C12.2211 26.7013 13.1759 27.2879 14.2412 27.5167L11.5661 31.8922C11.4963 31.999 11.4486 32.1187 11.4259 32.2443C11.4032 32.3698 11.406 32.4986 11.4341 32.6231C11.4621 32.7475 11.5149 32.8651 11.5892 32.9688C11.6635 33.0725 11.758 33.1601 11.8668 33.2266C11.9757 33.2931 12.0968 33.3371 12.223 33.3559C12.3492 33.3747 12.4779 33.368 12.6014 33.3361C12.7249 33.3042 12.8408 33.2479 12.9421 33.1704C13.0435 33.0928 13.1282 32.9958 13.1913 32.8849L14.0783 31.4359H25.9227L26.8087 32.8849C26.8718 32.9958 26.9565 33.0928 27.0578 33.1704C27.1592 33.2479 27.275 33.3042 27.3986 33.3361C27.5221 33.368 27.6508 33.3747 27.777 33.3559C27.9032 33.3371 28.0243 33.2931 28.1332 33.2266C28.242 33.1601 28.3364 33.0725 28.4108 32.9688C28.4851 32.8651 28.5379 32.7475 28.5659 32.6231C28.594 32.4986 28.5967 32.3698 28.5741 32.2443C28.5514 32.1187 28.5037 31.999 28.4339 31.8922L25.7588 27.5167C26.8241 27.2879 27.7789 26.7013 28.4644 25.8544C29.1499 25.0076 29.5248 23.9515 29.5266 22.862V22.862ZM15.2367 23.8146C15.0483 23.8146 14.8641 23.7588 14.7074 23.6541C14.5508 23.5494 14.4287 23.4006 14.3565 23.2265C14.2844 23.0525 14.2656 22.8609 14.3023 22.6761C14.3391 22.4913 14.4298 22.3216 14.5631 22.1883C14.6963 22.0551 14.866 21.9644 15.0508 21.9276C15.2356 21.8909 15.4272 21.9097 15.6013 21.9818C15.7753 22.0539 15.9241 22.176 16.0288 22.3327C16.1335 22.4894 16.1894 22.6736 16.1894 22.862C16.1894 23.1146 16.089 23.3569 15.9103 23.5356C15.7317 23.7143 15.4894 23.8146 15.2367 23.8146ZM15.2434 29.5306L16.4085 27.6253H23.5925L24.7576 29.5306H15.2434ZM23.8106 22.862C23.8106 22.6736 23.8665 22.4894 23.9712 22.3327C24.0759 22.176 24.2247 22.0539 24.3987 21.9818C24.5728 21.9097 24.7644 21.8909 24.9491 21.9276C25.1339 21.9644 25.3037 22.0551 25.4369 22.1883C25.5702 22.3216 25.6609 22.4913 25.6976 22.6761C25.7344 22.8609 25.7155 23.0525 25.6434 23.2265C25.5713 23.4006 25.4492 23.5494 25.2926 23.6541C25.1359 23.7588 24.9517 23.8146 24.7633 23.8146C24.5106 23.8146 24.2683 23.7143 24.0897 23.5356C23.911 23.3569 23.8106 23.1146 23.8106 22.862ZM26.6686 17.146C26.6686 17.6513 26.4679 18.136 26.1106 18.4933C25.7532 18.8506 25.2686 19.0513 24.7633 19.0513H15.2367C14.7314 19.0513 14.2467 18.8506 13.8894 18.4933C13.5321 18.136 13.3314 17.6513 13.3314 17.146V11.43C13.3314 10.9247 13.5321 10.4401 13.8894 10.0828C14.2467 9.72547 14.7314 9.52473 15.2367 9.52473H24.7633C25.2686 9.52473 25.7532 9.72547 26.1106 10.0828C26.4679 10.4401 26.6686 10.9247 26.6686 11.43V17.146Z" fill="#32ADE6"/>
</svg>
